<?xml version="1.0" encoding="utf-8"?>
<!-- Generator: Adobe Illustrator 25.0.0, SVG Export Plug-In . SVG Version: 6.00 Build 0)  -->
<svg version="1.1" xmlns="http://www.w3.org/2000/svg" xmlns:xlink="http://www.w3.org/1999/xlink" x="0px" y="0px"
	 viewBox="0 0 1000 1000" style="enable-background:new 0 0 1000 1000;" xml:space="preserve">
<style type="text/css">
	.st0{fill:#DDDDDD;}
	.st1{fill:#394147;}
	.st2{fill:#B9C55D;}
</style>
<g id="Calque_1">
	<g>
		<rect class="st0" width="1000" height="1000"/>
	</g>
</g>
<g id="Calque_3">
</g>
<g id="Calque_2">
	<g>
		<path class="st1" d="M500,531.3c77.9,0,141-63.2,141-141s-63.2-141-141-141s-141,63.2-141,141S422.1,531.3,500,531.3z M500,296.3
			c51.8,0,94,42.2,94,94s-42.2,94-94,94s-94-42.2-94-94S448.2,296.3,500,296.3z"/>
		<path class="st1" d="M587.8,547c-28.1,0-41.6,15.7-87.8,15.7S440.4,547,412.2,547c-72.7,0-131.6,59-131.6,131.6v25.1
			c0,26,21.1,47,47,47h344.8c26,0,47-21.1,47-47v-25.1C719.4,606,660.4,547,587.8,547z"/>
		<path class="st2" d="M672.4,703.7H327.6v-25.1c0-46.6,38-84.6,84.6-84.6c14.3,0,37.5,15.7,87.8,15.7c50.6,0,73.4-15.7,87.8-15.7
			c46.6,0,84.6,38,84.6,84.6V703.7z"/>
	</g>
</g>
</svg>
